<?xml version="1.0" encoding="UTF-8" standalone="no"?>
<!DOCTYPE svg PUBLIC "-//W3C//DTD SVG 1.1//EN"
 "http://www.w3.org/Graphics/SVG/1.1/DTD/svg11.dtd">
<!-- Generated by graphviz version 2.44.0 ()
 -->
<!-- Title: L Pages: 1 -->
<svg width="474pt" height="85pt"
 viewBox="0.00 0.00 473.50 85.00" xmlns="http://www.w3.org/2000/svg" xmlns:xlink="http://www.w3.org/1999/xlink">
<g id="graph0" class="graph" transform="scale(1 1) rotate(0) translate(4 81)">
<title>L</title>
<polygon fill="white" stroke="transparent" points="-4,4 -4,-81 469.5,-81 469.5,4 -4,4"/>
<!-- N2 -->
<g id="node1" class="node">
<title>N2</title>
<path fill="none" stroke="black" d="M12,-0.5C12,-0.5 120,-0.5 120,-0.5 126,-0.5 132,-6.5 132,-12.5 132,-12.5 132,-64.5 132,-64.5 132,-70.5 126,-76.5 120,-76.5 120,-76.5 12,-76.5 12,-76.5 6,-76.5 0,-70.5 0,-64.5 0,-64.5 0,-12.5 0,-12.5 0,-6.5 6,-0.5 12,-0.5"/>
<text text-anchor="middle" x="66" y="-61.3" font-family="Times,serif" font-size="14.00">Person</text>
<text text-anchor="middle" x="66" y="-46.3" font-family="Times,serif" font-size="14.00">Actor</text>
<polyline fill="none" stroke="black" points="0,-38.5 132,-38.5 "/>
<text text-anchor="start" x="8" y="-23.3" font-family="Times,serif" font-size="14.00">name = &#39;Tom Hanks&#39;</text>
<text text-anchor="start" x="8" y="-8.3" font-family="Times,serif" font-size="14.00">born = 1956</text>
</g>
<!-- N3 -->
<g id="node2" class="node">
<title>N3</title>
<path fill="none" stroke="black" d="M162,-8C162,-8 274,-8 274,-8 280,-8 286,-14 286,-20 286,-20 286,-57 286,-57 286,-63 280,-69 274,-69 274,-69 162,-69 162,-69 156,-69 150,-63 150,-57 150,-57 150,-20 150,-20 150,-14 156,-8 162,-8"/>
<text text-anchor="middle" x="218" y="-53.8" font-family="Times,serif" font-size="14.00">Movie</text>
<polyline fill="none" stroke="black" points="150,-46 286,-46 "/>
<text text-anchor="start" x="158" y="-30.8" font-family="Times,serif" font-size="14.00">title = &#39;Forrest Gump&#39;</text>
<text text-anchor="start" x="158" y="-15.8" font-family="Times,serif" font-size="14.00">released = 1994</text>
</g>
<!-- N4 -->
<g id="node3" class="node">
<title>N4</title>
<path fill="none" stroke="black" d="M316.5,-0.5C316.5,-0.5 453.5,-0.5 453.5,-0.5 459.5,-0.5 465.5,-6.5 465.5,-12.5 465.5,-12.5 465.5,-64.5 465.5,-64.5 465.5,-70.5 459.5,-76.5 453.5,-76.5 453.5,-76.5 316.5,-76.5 316.5,-76.5 310.5,-76.5 304.5,-70.5 304.5,-64.5 304.5,-64.5 304.5,-12.5 304.5,-12.5 304.5,-6.5 310.5,-0.5 316.5,-0.5"/>
<text text-anchor="middle" x="385" y="-61.3" font-family="Times,serif" font-size="14.00">Person</text>
<text text-anchor="middle" x="385" y="-46.3" font-family="Times,serif" font-size="14.00">Director</text>
<polyline fill="none" stroke="black" points="304.5,-38.5 465.5,-38.5 "/>
<text text-anchor="start" x="312.5" y="-23.3" font-family="Times,serif" font-size="14.00">name = &#39;Robert Zemeckis&#39;</text>
<text text-anchor="start" x="312.5" y="-8.3" font-family="Times,serif" font-size="14.00">born = 1951</text>
</g>
</g>
</svg>
